<svg xmlns="http://www.w3.org/2000/svg" xmlns:xlink="http://www.w3.org/1999/xlink" viewBox="0 0 129.55 162" height="48"><defs><style>.cls-1{fill:#fff;}.cls-1,.cls-3,.cls-4,.cls-5,.cls-6,.cls-7{fill-rule:evenodd;}.cls-2{mask:url(#mask);}.cls-3{fill:#aaaeae;}.cls-4{fill:#002344;}.cls-5{fill:#fffffe;}.cls-6{fill:#8dbcda;}.cls-7{fill:#dc3b41;}</style><mask id="mask" x="0" y="0" width="129.55" height="162" maskUnits="userSpaceOnUse"><g id="primary-b"><polygon id="primary-a" class="cls-1" points="0.06 0 129.55 0 129.55 161.94 0.06 161.94 0.06 0"/></g></mask></defs><title>Asset 1</title><g id="Layer_2" data-name="Layer 2"><g id="Layer_1-2" data-name="Layer 1"><g class="cls-2"><path class="cls-3" d="M110.6,120.37l-1.68-5.16s-9.67,18.65-24.84,27.66c0,0-5.65,15.18-19.3,17.06-13.65-1.88-19.3-17.06-19.3-17.06-15.17-9-24.84-27.66-24.84-27.66L19,120.37C9,103,2.2,77.13,2.2,77.13A99.3,99.3,0,0,1,14.54,60.85l-2.68-1.42a62,62,0,0,1,5.81-9.8C22.87,13,39.57,2.55,39.57,2.55c10.15,9.37,12.94,23.34,12.94,23.34,4.24-.48,12.27-.84,12.27-.84s8,.36,12.28.84c0,0,2.78-14,12.93-23.34,0,0,16.69,10.42,21.9,47.08a61.47,61.47,0,0,1,5.8,9.8L115,60.85a100.06,100.06,0,0,1,12.36,16.28S120.56,103,110.6,120.37Zm18.53-44.28A99.63,99.63,0,0,0,118.3,61.42l2-1.08-.77-1.74a62.6,62.6,0,0,0-5.71-9.76C108.48,12.07,91.78,1.27,91.07.82L89.75,0,88.6,1.06c-8.43,7.77-12,18.4-13.12,22.61C71.14,23.29,65.15,23,64.86,23h-.17c-.29,0-6.27.28-10.62.66C52.94,19.46,49.39,8.83,41,1.06L39.81,0,38.48.82c-.7.45-17.4,11.25-22.76,48A61.66,61.66,0,0,0,10,58.6l-.77,1.74,2,1.08A100.44,100.44,0,0,0,.43,76.09L0,76.82l.22.83c.28,1.06,7,26.32,17,43.75l2.29,4,1.69-5.18c3.73,6,11.71,17.31,22.67,24.06,1.34,3.14,7.53,15.86,20.66,17.69l.28,0,.28,0c13.13-1.83,19.32-14.55,20.65-17.69,11-6.75,19-18,22.68-24.06l1.68,5.18,2.29-4c10-17.43,16.7-42.69,17-43.75l.21-.83-.42-.73Z"/></g><path class="cls-4" d="M71.89,139.11c-4.23,1.41-3.71,2.19-7.11,2.38-3.41-.19-2.89-1-7.13-2.38-4.12-1.87-4.6-10-1.74-12.46C54.67,132,59.06,137,59.1,136.89a1.9,1.9,0,0,1,1.06-1.44,4.94,4.94,0,0,0,9.23,0,1.9,1.9,0,0,1,1.06,1.44c0,.14,4.43-4.87,3.19-10.24C76.49,129.15,76,137.24,71.89,139.11ZM64.78,130c1.57,0,.66-3.92,5.86-3.92-.1,4.2-3.14,6.92-5.86,7-2.73-.09-5.77-2.81-5.87-7C64.15,126,63.21,130,64.78,130Zm-5.7-22.14c.86-1.5,3.34-2.54,5.7-2.54s4.82,1,5.69,2.54a10.24,10.24,0,0,0-11.39,0ZM84,109.47c-4.68,9-6.58,12.21-12.49,12.45s-5.24-2.85-5.24-2.85,7.24-1.65,7.35-12.56a11.85,11.85,0,0,0-17.39,0c.11,10.91,7.36,12.56,7.36,12.56s.66,3.09-5.25,2.85-7.81-3.44-12.49-12.45c-1.82-3.49-3.27-4.58-4.39-4.61a91.13,91.13,0,0,1,7.49,18.5c.85,2.51,1.61,5.18,2.26,7.92,3,12.92,13.72,13.86,13.72,13.86s10.71-.94,13.72-13.86A81.35,81.35,0,0,1,81,122.82a90.59,90.59,0,0,1,7.35-18c-1.13,0-2.6,1.09-4.43,4.61Z"/><path class="cls-4" d="M83.34,76.64a1.9,1.9,0,0,0,1.25-2.28A8.37,8.37,0,0,1,86,74.17s.76,3.22-2.17,4.1a2.8,2.8,0,0,1-3.7-1.91,11.32,11.32,0,0,1,2.94-1.57,8.18,8.18,0,0,1-.87,1.83A1.67,1.67,0,0,0,83.34,76.64Zm-36.92,0a1.68,1.68,0,0,0,1.14,0,7.39,7.39,0,0,1-.87-1.83,11.43,11.43,0,0,1,2.93,1.57,2.8,2.8,0,0,1-3.7,1.91c-2.93-.88-2.16-4.1-2.16-4.1a8.21,8.21,0,0,1,1.4.19A1.91,1.91,0,0,0,46.42,76.64Zm71.34,3.67a189.61,189.61,0,0,1-8.71,26.2l-1.68-4.15C100.13,116.57,93.32,121,93.32,121c2-7.1,5.25-14.93,5.25-14.93-10.16,7.35-16.24,23.17-18.86,31.53-4,12.8-14.83,12.48-14.83,12.48s-10.82.32-14.84-12.48c-2.62-8.36-8.71-24.18-18.86-31.53,0,0,3.24,7.83,5.25,14.93,0,0-6.8-4.39-14.06-18.6l-1.67,4.15A187.28,187.28,0,0,1,12,80.31l9-1.18-5.47-3.56L21,71a49.67,49.67,0,0,1,9.7,2.48s1.51,8.29,6.09,13.38c0,0-2-9.23-1.63-16.58A19.51,19.51,0,0,0,46.14,63l-1.68-.82a51,51,0,0,1,4.13-6,21.13,21.13,0,0,1,8.26,6.51c1,14.7-2.79,17.43-2.79,17.43-4-9.26-8.71-11.38-8.71-11.38l.89,2.84A28.35,28.35,0,0,0,39,71.42s.33,7.47,9.7,10.2a49.35,49.35,0,0,0,.89,10.74A45.56,45.56,0,0,1,60.52,80.91s.94-20.11,4.28-35.64c3.34,15.53,4.43,35.64,4.43,35.64A45.56,45.56,0,0,1,80.16,92.36a48.65,48.65,0,0,0,.89-10.74c9.37-2.73,9.7-10.2,9.7-10.2a28.35,28.35,0,0,0-7.24.12l.89-2.84s-4.69,2.12-8.71,11.38c0,0-3.79-2.73-2.78-17.43a21.06,21.06,0,0,1,8.25-6.51,51,51,0,0,1,4.13,6L83.62,63a19.47,19.47,0,0,0,10.93,7.23c.34,7.35-1.63,16.58-1.63,16.58C97.49,81.72,99,73.43,99,73.43a49.67,49.67,0,0,1,9.7-2.48l5.48,4.62-5.48,3.56ZM39.11,10.05C47.58,17.64,50,31.74,50,31.74L47.37,33.4c1.56,0,5,.47,5,.47A68,68,0,0,0,36.1,46.2s.89-6,2.79-9.6L36.21,37A43.93,43.93,0,0,1,42,25.7s-.34-6.29-3.23-10.79a91.16,91.16,0,0,0-9.59,16.22C25.3,39.9,22.83,46.2,22.83,46.2,26.28,18.93,39.11,10.05,39.11,10.05Zm40.6,21.69s2.46-14.1,10.94-21.69c0,0,12.83,8.88,16.28,36.15,0,0-2.48-6.3-6.36-15.07A91.16,91.16,0,0,0,91,14.91c-2.9,4.5-3.23,10.79-3.23,10.79A43.93,43.93,0,0,1,93.55,37l-2.68-.36c1.89,3.56,2.79,9.6,2.79,9.6A68.26,68.26,0,0,0,77.38,33.87s3.45-.47,5-.47Zm38,27.69a61.47,61.47,0,0,0-5.8-9.8C106.68,13,90,2.55,90,2.55,79.84,11.92,77.06,25.89,77.06,25.89c-4.25-.48-12.28-.84-12.28-.84s-8,.36-12.27.84c0,0-2.79-14-12.94-23.34,0,0-16.7,10.42-21.9,47.08a62,62,0,0,0-5.81,9.8l2.68,1.42A99.3,99.3,0,0,0,2.2,77.13S9,103,19,120.37l1.68-5.16s9.67,18.65,24.84,27.66c0,0,5.65,15.18,19.3,17.06,13.65-1.88,19.3-17.06,19.3-17.06,15.17-9,24.84-27.66,24.84-27.66l1.68,5.16c10-17.38,16.77-43.24,16.77-43.24A100.06,100.06,0,0,0,115,60.85l2.68-1.42Z"/><path class="cls-5" d="M38.78,14.91C41.67,19.41,42,25.7,42,25.7A43.93,43.93,0,0,0,36.21,37l2.68-.36c-1.9,3.56-2.79,9.6-2.79,9.6A68,68,0,0,1,52.38,33.87s-3.45-.47-5-.47L50,31.74s-2.46-14.1-10.93-21.69c0,0-12.83,8.88-16.28,36.15,0,0,2.47-6.3,6.36-15.07a91.16,91.16,0,0,1,9.59-16.22M93.66,46.2s-.9-6-2.79-9.6l2.68.36a43.93,43.93,0,0,0-5.8-11.26s.33-6.29,3.23-10.79a91.16,91.16,0,0,1,9.59,16.22c3.88,8.77,6.36,15.07,6.36,15.07-3.45-27.27-16.28-36.15-16.28-36.15-8.48,7.59-10.94,21.69-10.94,21.69l2.68,1.66c-1.56,0-5,.47-5,.47A68.26,68.26,0,0,1,93.66,46.2"/><path class="cls-6" d="M43.76,74.17s-.77,3.22,2.16,4.1a2.8,2.8,0,0,0,3.7-1.91,11.43,11.43,0,0,0-2.93-1.57,7.39,7.39,0,0,0,.87,1.83,1.68,1.68,0,0,1-1.14,0,1.91,1.91,0,0,1-1.26-2.28,8.21,8.21,0,0,0-1.4-.19m36.37,2.19a2.8,2.8,0,0,0,3.7,1.91c2.93-.88,2.17-4.1,2.17-4.1a8.37,8.37,0,0,0-1.41.19,1.9,1.9,0,0,1-1.25,2.28,1.67,1.67,0,0,1-1.14,0,8.18,8.18,0,0,0,.87-1.83,11.32,11.32,0,0,0-2.94,1.57"/><path class="cls-7" d="M64.78,133c2.72-.09,5.76-2.81,5.86-7-5.2,0-4.29,3.92-5.86,3.92S64.15,126,58.91,126c.1,4.2,3.14,6.92,5.87,7"/><path class="cls-5" d="M70.47,107.81c-.87-1.5-3.33-2.54-5.69-2.54s-4.84,1-5.7,2.54a10.24,10.24,0,0,1,11.39,0m0,29.08a1.9,1.9,0,0,0-1.06-1.44,4.94,4.94,0,0,1-9.23,0,1.9,1.9,0,0,0-1.06,1.44c0,.14-4.43-4.87-3.19-10.24-2.86,2.5-2.38,10.59,1.74,12.46,4.24,1.41,3.72,2.19,7.13,2.38,3.4-.19,2.88-1,7.11-2.38,4.13-1.87,4.6-10,1.75-12.46,1.24,5.37-3.16,10.38-3.19,10.24"/><path class="cls-5" d="M81,122.82a81.35,81.35,0,0,0-2.43,8.46c-3,12.92-13.72,13.86-13.72,13.86s-10.71-.94-13.72-13.86c-.65-2.74-1.41-5.41-2.26-7.92a91.13,91.13,0,0,0-7.49-18.5c1.12,0,2.57,1.12,4.39,4.61,4.68,9,6.58,12.21,12.49,12.45s5.25-2.85,5.25-2.85-7.25-1.65-7.36-12.56a11.85,11.85,0,0,1,17.39,0c-.11,10.91-7.35,12.56-7.35,12.56s-.68,3.09,5.24,2.85,7.81-3.44,12.49-12.45c1.83-3.52,3.3-4.61,4.43-4.61A90.59,90.59,0,0,0,81,122.82Zm33.16-47.25L108.71,71A49.67,49.67,0,0,0,99,73.43s-1.52,8.29-6.09,13.38c0,0,2-9.23,1.63-16.58A19.47,19.47,0,0,1,83.62,63l1.67-.82a51,51,0,0,0-4.13-6,21.06,21.06,0,0,0-8.25,6.51c-1,14.7,2.78,17.43,2.78,17.43,4-9.26,8.71-11.38,8.71-11.38l-.89,2.84a28.35,28.35,0,0,1,7.24-.12s-.33,7.47-9.7,10.2a48.65,48.65,0,0,1-.89,10.74A45.56,45.56,0,0,0,69.23,80.91S68.14,60.8,64.8,45.27c-3.34,15.53-4.28,35.64-4.28,35.64A45.56,45.56,0,0,0,49.59,92.36a49.35,49.35,0,0,1-.89-10.74c-9.37-2.73-9.7-10.2-9.7-10.2a28.35,28.35,0,0,1,7.24.12l-.89-2.84S50,70.82,54.06,80.08c0,0,3.79-2.73,2.79-17.43a21.13,21.13,0,0,0-8.26-6.51,51,51,0,0,0-4.13,6l1.68.82A19.51,19.51,0,0,1,35.2,70.23c-.33,7.35,1.63,16.58,1.63,16.58-4.58-5.09-6.09-13.38-6.09-13.38A49.67,49.67,0,0,0,21,71l-5.47,4.62L21,79.13l-9,1.18a187.28,187.28,0,0,0,8.7,26.2l1.67-4.15C29.63,116.57,36.43,121,36.43,121c-2-7.1-5.25-14.93-5.25-14.93C41.33,113.38,47.42,129.2,50,137.56c4,12.8,14.84,12.48,14.84,12.48s10.81.32,14.83-12.48c2.62-8.36,8.7-24.18,18.86-31.53,0,0-3.24,7.83-5.25,14.93,0,0,6.81-4.39,14.05-18.6l1.68,4.15a189.61,189.61,0,0,0,8.71-26.2l-9.05-1.18,5.48-3.56Z"/><polyline class="cls-1" points="105.52 156.49 106.67 156.49 106.67 160.1 107.2 160.1 107.2 156.49 108.36 156.49 108.36 155.84 105.52 155.84 105.52 156.49"/><polyline class="cls-1" points="111.9 158.84 110.76 155.84 109.78 155.84 109.78 160.1 110.38 160.1 110.38 156.49 110.4 156.49 111.71 160.1 112.07 160.1 113.42 156.49 113.44 156.49 113.44 160.1 114.04 160.1 114.04 155.84 113.07 155.84 111.9 158.84"/></g></g></svg>